<svg xmlns="http://www.w3.org/2000/svg" viewBox="0 0 96 96" width="96" height="96" role="img" aria-labelledby="t-architect">
  <title id="t-architect">System Architect — Kiro ghost in a hard hat with a set square</title>
  <defs>
    <linearGradient id="g-FF8C00" x1="0" y1="0" x2="0" y2="1">
      <stop offset="0" stop-color="#FF8C00" stop-opacity="0.95"/>
      <stop offset="1" stop-color="#B35F00"/>
    </linearGradient>
  </defs>
  <path d="M48 8 C26 8 10 25 10 46 V80 Q10 85 15 82.5 L21 79 Q24 77.5 27 79 L33 82.5 Q36 84 39 82.5 L45 79 Q48 77.5 51 79 L57 82.5 Q60 84 63 82.5 L69 79 Q72 77.5 75 79 L81 82.5 Q86 85 86 80 V46 C86 25 70 8 48 8 Z" fill="url(#g-FF8C00)" stroke="#B35F00" stroke-width="2.5" stroke-linejoin="round"/>
  <ellipse cx="30" cy="38" rx="11" ry="15" fill="#fff" opacity="0.13"/>
  <ellipse cx="37" cy="46" rx="7" ry="8.6" fill="#FFFDFB"/>
  <ellipse cx="59" cy="46" rx="7" ry="8.6" fill="#FFFDFB"/>
  <ellipse cx="37.6" cy="47.6" rx="3.7" ry="4.2" fill="#B35F00"/>
  <ellipse cx="59.6" cy="47.6" rx="3.7" ry="4.2" fill="#B35F00"/>
  <circle cx="35.4" cy="44.6" r="1.5" fill="#fff"/>
  <circle cx="57.4" cy="44.6" r="1.5" fill="#fff"/>
  <ellipse cx="26" cy="58" rx="5" ry="3" fill="#fff" opacity="0.3"/>
  <ellipse cx="70" cy="58" rx="5" ry="3" fill="#fff" opacity="0.3"/>
  <!-- hard hat -->
  <path d="M17 30 Q17 9 48 9 Q79 9 79 30 Z" fill="#FFD54F" stroke="#C79000" stroke-width="2.5" stroke-linejoin="round"/>
  <path d="M44 9.6 Q48 8.6 52 9.6 L52 30 L44 30 Z" fill="#FFC107" stroke="#C79000" stroke-width="1.6"/>
  <rect x="13" y="28.5" width="70" height="6.5" rx="3.2" fill="#FFD54F" stroke="#C79000" stroke-width="2.5"/>
  <!-- set square -->
  <path d="M57 59 L78 59 L57 80 Z" fill="none" stroke="#FFF3E0" stroke-width="3.4" stroke-linejoin="round"/>
  <path d="M61.5 63.5 L61.5 67.5 M66 63.5 L66 65.5" stroke="#FFF3E0" stroke-width="2" stroke-linecap="round"/>
</svg>
