<svg xmlns="http://www.w3.org/2000/svg" viewBox="0 0 96 96" width="96" height="96" role="img" aria-labelledby="t-backend">
  <title id="t-backend">Backend Dev — Kiro ghost holding a wrench beside a server stack</title>
  <defs>
    <linearGradient id="g-32CD32" x1="0" y1="0" x2="0" y2="1">
      <stop offset="0" stop-color="#32CD32" stop-opacity="0.95"/>
      <stop offset="1" stop-color="#1B7F1B"/>
    </linearGradient>
  </defs>
  <path d="M48 8 C26 8 10 25 10 46 V80 Q10 85 15 82.5 L21 79 Q24 77.5 27 79 L33 82.5 Q36 84 39 82.5 L45 79 Q48 77.5 51 79 L57 82.5 Q60 84 63 82.5 L69 79 Q72 77.5 75 79 L81 82.5 Q86 85 86 80 V46 C86 25 70 8 48 8 Z" fill="url(#g-32CD32)" stroke="#1B7F1B" stroke-width="2.5" stroke-linejoin="round"/>
  <ellipse cx="30" cy="38" rx="11" ry="15" fill="#fff" opacity="0.13"/>
  <ellipse cx="37" cy="42" rx="7" ry="8.6" fill="#FFFDFB"/>
  <ellipse cx="59" cy="42" rx="7" ry="8.6" fill="#FFFDFB"/>
  <ellipse cx="37.6" cy="43.6" rx="3.7" ry="4.2" fill="#1B7F1B"/>
  <ellipse cx="59.6" cy="43.6" rx="3.7" ry="4.2" fill="#1B7F1B"/>
  <circle cx="35.4" cy="40.6" r="1.5" fill="#fff"/>
  <circle cx="57.4" cy="40.6" r="1.5" fill="#fff"/>
  <ellipse cx="26" cy="54" rx="5" ry="3" fill="#fff" opacity="0.3"/>
  <ellipse cx="70" cy="54" rx="5" ry="3" fill="#fff" opacity="0.3"/>
  <!-- server stack -->
  <g fill="#E8F5E9" stroke="#1B5E20" stroke-width="1.6">
    <rect x="16" y="58" width="20" height="6" rx="2"/>
    <rect x="16" y="66" width="20" height="6" rx="2"/>
  </g>
  <circle cx="20" cy="61" r="1.4" fill="#66BB6A"/>
  <circle cx="20" cy="69" r="1.4" fill="#66BB6A"/>
  <!-- wrench -->
  <g transform="rotate(38 66 64)">
    <path d="M62 48 a7 7 0 1 0 8 0 l0 6 -8 0 Z" fill="#F1F8E9" stroke="#1B5E20" stroke-width="2"/>
    <rect x="62.6" y="53" width="6.8" height="26" rx="3.2" fill="#F1F8E9" stroke="#1B5E20" stroke-width="2"/>
  </g>
</svg>
